<?xml version="1.0" standalone="no"?>
<!DOCTYPE svg PUBLIC "-//W3C//DTD SVG 20010904//EN"
 "http://www.w3.org/TR/2001/REC-SVG-20010904/DTD/svg10.dtd">
<svg version="1.0" xmlns="http://www.w3.org/2000/svg"
 width="518.000000pt" height="518.000000pt" viewBox="0 0 518.000000 518.000000"
 preserveAspectRatio="xMidYMid meet">
<metadata>
Created by potrace 1.14, written by Peter Selinger 2001-2017
</metadata>
<g transform="translate(0.000000,518.000000) scale(0.100000,-0.100000)"
fill="#000000" stroke="none">
<path d="M0 2585 l0 -1705 545 0 545 0 1 638 0 637 138 -280 c76 -154 162
-330 192 -392 l54 -112 330 -1 330 0 40 83 c21 45 71 147 110 227 68 138 109
229 226 498 28 64 62 140 74 167 18 39 468 1055 538 1215 8 19 27 61 41 93 14
32 26 59 26 62 0 2 15 36 33 77 19 40 49 107 67 148 18 41 44 99 58 129 35 78
92 212 92 217 0 2 -204 4 -452 4 l-453 0 -56 -118 c-83 -173 -324 -669 -518
-1067 -65 -132 -124 -255 -132 -272 -7 -18 -16 -33 -20 -33 -6 0 -5 -4 -182
360 -74 151 -195 399 -269 550 -74 151 -168 344 -209 428 l-74 152 -537 0
-538 0 0 -1705z"/>
<path d="M3731 3873 c-1 -7 -12 -36 -25 -65 -13 -29 -40 -91 -61 -138 -21 -47
-50 -112 -65 -145 -15 -33 -49 -109 -75 -170 -26 -60 -60 -137 -75 -170 -15
-33 -40 -88 -54 -122 -14 -35 -37 -86 -50 -115 -46 -101 -298 -673 -306 -693
-4 -11 -22 -51 -40 -90 -43 -95 -48 -106 -135 -305 -43 -96 -120 -272 -172
-390 -170 -383 -159 -350 -158 -475 l0 -110 1333 -3 1332 -2 0 435 0 435 -32
1 c-18 0 -341 1 -718 2 l-685 2 -2 1054 c-2 580 -5 1060 -7 1065 -3 7 -5 6 -5
-1z"/>
</g>
</svg>
